<mxfile host="app.diagrams.net" agent="Mozilla/5.0 (Windows NT 10.0; Win64; x64; rv:129.0) Gecko/20100101 Firefox/129.0" version="24.7.6">
  <diagram name="Page-1" id="c7558073-3199-34d8-9f00-42111426c3f3">
    <mxGraphModel dx="2074" dy="1204" grid="0" gridSize="10" guides="1" tooltips="1" connect="1" arrows="1" fold="1" page="1" pageScale="1" pageWidth="1920" pageHeight="1080" background="none" math="0" shadow="0">
      <root>
        <mxCell id="0" />
        <mxCell id="1" parent="0" />
        <mxCell id="5zzfdvalp0ISnl_wuwMz-347" value="" style="rounded=1;whiteSpace=wrap;html=1;fillStyle=solid;fillColor=#FCFCFC;" vertex="1" parent="1">
          <mxGeometry x="40" y="899" width="355" height="177" as="geometry" />
        </mxCell>
        <mxCell id="5zzfdvalp0ISnl_wuwMz-211" value="" style="sketch=0;pointerEvents=1;shadow=0;dashed=0;html=1;strokeColor=#919191;fillColor=#E8EBEB;labelPosition=center;verticalLabelPosition=bottom;outlineConnect=0;verticalAlign=top;align=center;shape=mxgraph.office.clouds.private_cloud;fillStyle=solid;" vertex="1" parent="1">
          <mxGeometry x="510" y="70" width="1220" height="900" as="geometry" />
        </mxCell>
        <mxCell id="5zzfdvalp0ISnl_wuwMz-296" value="" style="rounded=1;whiteSpace=wrap;html=1;fillColor=#E8EBEB;fillStyle=solid;" vertex="1" parent="1">
          <mxGeometry x="940" y="250" width="400" height="700" as="geometry" />
        </mxCell>
        <mxCell id="5zzfdvalp0ISnl_wuwMz-261" value="" style="rounded=1;whiteSpace=wrap;html=1;fillStyle=solid;fillColor=#F5F5F5;" vertex="1" parent="1">
          <mxGeometry x="1550" y="330" width="355" height="706" as="geometry" />
        </mxCell>
        <mxCell id="5zzfdvalp0ISnl_wuwMz-281" value="" style="rounded=1;whiteSpace=wrap;html=1;fillStyle=solid;fillColor=#FCFCFC;strokeColor=#ff0000;" vertex="1" parent="1">
          <mxGeometry x="1741.5" y="400" width="130" height="453" as="geometry" />
        </mxCell>
        <mxCell id="5zzfdvalp0ISnl_wuwMz-280" value="" style="rounded=1;whiteSpace=wrap;html=1;fillStyle=solid;fillColor=#FCFCFC;" vertex="1" parent="1">
          <mxGeometry x="1581.5" y="400" width="130" height="453" as="geometry" />
        </mxCell>
        <mxCell id="5zzfdvalp0ISnl_wuwMz-253" value="" style="rounded=1;whiteSpace=wrap;html=1;fillStyle=solid;fillColor=#F5F5F5;" vertex="1" parent="1">
          <mxGeometry x="1451.5" y="50" width="420" height="160" as="geometry" />
        </mxCell>
        <mxCell id="5zzfdvalp0ISnl_wuwMz-143" value="" style="ellipse;whiteSpace=wrap;html=1;aspect=fixed;fillStyle=solid;fillColor=#FCFCFC;" vertex="1" parent="1">
          <mxGeometry x="540" y="22" width="348" height="348" as="geometry" />
        </mxCell>
        <mxCell id="5zzfdvalp0ISnl_wuwMz-177" value="" style="rounded=1;whiteSpace=wrap;html=1;fillColor=#FCFCFC;fillStyle=auto;" vertex="1" parent="1">
          <mxGeometry x="40" y="293" width="355" height="296" as="geometry" />
        </mxCell>
        <mxCell id="5zzfdvalp0ISnl_wuwMz-176" value="" style="rounded=1;whiteSpace=wrap;html=1;fillStyle=solid;fillColor=#FCFCFC;" vertex="1" parent="1">
          <mxGeometry x="40" y="22" width="355" height="264" as="geometry" />
        </mxCell>
        <mxCell id="65" value="" style="edgeStyle=elbowEdgeStyle;elbow=horizontal;strokeColor=#808080;strokeWidth=2" parent="1" edge="1">
          <mxGeometry width="100" height="100" relative="1" as="geometry">
            <mxPoint x="175" y="66" as="sourcePoint" />
            <mxPoint x="345" y="116" as="targetPoint" />
            <Array as="points">
              <mxPoint x="345" y="66" />
            </Array>
          </mxGeometry>
        </mxCell>
        <mxCell id="5zzfdvalp0ISnl_wuwMz-123" value="&lt;div&gt;&lt;b&gt;&amp;nbsp;Capture Card&amp;nbsp;&lt;/b&gt;&lt;/div&gt;&lt;div&gt;&lt;b&gt;or NDI&amp;nbsp; &lt;/b&gt;&lt;/div&gt;" style="edgeLabel;html=1;align=center;verticalAlign=middle;resizable=0;points=[];fontSize=10;" vertex="1" connectable="0" parent="65">
          <mxGeometry x="-0.4868" y="1" relative="1" as="geometry">
            <mxPoint as="offset" />
          </mxGeometry>
        </mxCell>
        <mxCell id="5zzfdvalp0ISnl_wuwMz-138" value="&amp;nbsp;(Optional)&amp;nbsp; " style="edgeLabel;html=1;align=center;verticalAlign=middle;resizable=0;points=[];fontSize=8;fontStyle=1" vertex="1" connectable="0" parent="65">
          <mxGeometry x="0.0901" y="-1" relative="1" as="geometry">
            <mxPoint as="offset" />
          </mxGeometry>
        </mxCell>
        <mxCell id="5zzfdvalp0ISnl_wuwMz-101" value="VR Client" style="sketch=0;pointerEvents=1;shadow=0;dashed=0;html=1;strokeColor=none;fillColor=#505050;labelPosition=center;verticalLabelPosition=bottom;verticalAlign=top;outlineConnect=0;align=center;shape=mxgraph.office.devices.workstation;" vertex="1" parent="1">
          <mxGeometry x="117.5" y="26" width="53" height="56" as="geometry" />
        </mxCell>
        <mxCell id="5zzfdvalp0ISnl_wuwMz-102" value="" style="sketch=0;pointerEvents=1;shadow=0;dashed=0;html=1;strokeColor=none;fillColor=#505050;labelPosition=center;verticalLabelPosition=bottom;verticalAlign=top;outlineConnect=0;align=center;shape=mxgraph.office.users.user;" vertex="1" parent="1">
          <mxGeometry x="45" y="133" width="32" height="35" as="geometry" />
        </mxCell>
        <mxCell id="5zzfdvalp0ISnl_wuwMz-110" value="&lt;div&gt;DJ Laptop/Visuals&lt;/div&gt;" style="sketch=0;pointerEvents=1;shadow=0;dashed=0;html=1;strokeColor=none;fillColor=#505050;labelPosition=center;verticalLabelPosition=bottom;verticalAlign=top;outlineConnect=0;align=center;shape=mxgraph.office.devices.laptop;" vertex="1" parent="1">
          <mxGeometry x="115" y="226" width="58" height="34" as="geometry" />
        </mxCell>
        <mxCell id="5zzfdvalp0ISnl_wuwMz-121" value="" style="edgeStyle=elbowEdgeStyle;elbow=horizontal;strokeColor=#990000;strokeWidth=2" edge="1" parent="1">
          <mxGeometry width="100" height="100" relative="1" as="geometry">
            <mxPoint x="173" y="246" as="sourcePoint" />
            <mxPoint x="345" y="216" as="targetPoint" />
            <Array as="points">
              <mxPoint x="345" y="236" />
            </Array>
          </mxGeometry>
        </mxCell>
        <mxCell id="5zzfdvalp0ISnl_wuwMz-122" value="&lt;div&gt;&lt;b&gt;&amp;nbsp;Capture Card&amp;nbsp;&lt;/b&gt;&lt;/div&gt;&lt;div&gt;&lt;b&gt;or NDI&amp;nbsp; &lt;/b&gt;&lt;/div&gt;" style="edgeLabel;html=1;align=center;verticalAlign=middle;resizable=0;points=[];fontSize=10;" vertex="1" connectable="0" parent="5zzfdvalp0ISnl_wuwMz-121">
          <mxGeometry x="-0.2179" y="-1" relative="1" as="geometry">
            <mxPoint as="offset" />
          </mxGeometry>
        </mxCell>
        <mxCell id="5zzfdvalp0ISnl_wuwMz-124" value="" style="edgeStyle=elbowEdgeStyle;elbow=horizontal;strokeColor=#990000;strokeWidth=2" edge="1" parent="1">
          <mxGeometry width="100" height="100" relative="1" as="geometry">
            <mxPoint x="175" y="151" as="sourcePoint" />
            <mxPoint x="305" y="151" as="targetPoint" />
            <Array as="points">
              <mxPoint x="255" y="256" />
            </Array>
          </mxGeometry>
        </mxCell>
        <mxCell id="5zzfdvalp0ISnl_wuwMz-125" value="&lt;div&gt;&lt;b&gt;&amp;nbsp; XLR or 1/4&quot; TRS&amp;nbsp;&lt;/b&gt;&lt;/div&gt;&lt;div&gt;&lt;b&gt;to USB Audio&amp;nbsp;&lt;/b&gt;&lt;/div&gt;&lt;div&gt;&lt;b&gt;Interface&amp;nbsp; &lt;br&gt;&lt;/b&gt;&lt;/div&gt;" style="edgeLabel;html=1;align=center;verticalAlign=middle;resizable=0;points=[];fontSize=10;" vertex="1" connectable="0" parent="5zzfdvalp0ISnl_wuwMz-124">
          <mxGeometry x="-0.2179" y="-1" relative="1" as="geometry">
            <mxPoint as="offset" />
          </mxGeometry>
        </mxCell>
        <mxCell id="5zzfdvalp0ISnl_wuwMz-126" value="" style="edgeStyle=elbowEdgeStyle;elbow=horizontal;strokeColor=#990000;strokeWidth=2" edge="1" parent="1">
          <mxGeometry width="100" height="100" relative="1" as="geometry">
            <mxPoint x="65" y="126" as="sourcePoint" />
            <mxPoint x="115" y="66" as="targetPoint" />
            <Array as="points">
              <mxPoint x="65" y="66" />
            </Array>
          </mxGeometry>
        </mxCell>
        <mxCell id="5zzfdvalp0ISnl_wuwMz-128" value="" style="edgeStyle=elbowEdgeStyle;elbow=horizontal;strokeColor=#990000;strokeWidth=2" edge="1" parent="1" target="5zzfdvalp0ISnl_wuwMz-110">
          <mxGeometry width="100" height="100" relative="1" as="geometry">
            <mxPoint x="65" y="176" as="sourcePoint" />
            <mxPoint x="130" y="238.5" as="targetPoint" />
            <Array as="points">
              <mxPoint x="65" y="243" />
            </Array>
          </mxGeometry>
        </mxCell>
        <mxCell id="5zzfdvalp0ISnl_wuwMz-129" value="" style="edgeStyle=elbowEdgeStyle;elbow=horizontal;strokeColor=#990000;strokeWidth=2" edge="1" parent="1">
          <mxGeometry width="100" height="100" relative="1" as="geometry">
            <mxPoint x="77" y="150.26" as="sourcePoint" />
            <mxPoint x="115" y="150" as="targetPoint" />
            <Array as="points">
              <mxPoint x="105" y="150.26" />
            </Array>
          </mxGeometry>
        </mxCell>
        <mxCell id="5zzfdvalp0ISnl_wuwMz-97" value="Stream / &lt;br&gt;Local VOD PC" style="sketch=0;pointerEvents=1;shadow=0;dashed=0;html=1;strokeColor=none;fillColor=#505050;labelPosition=center;verticalLabelPosition=bottom;verticalAlign=top;outlineConnect=0;align=center;shape=mxgraph.office.devices.workstation;" vertex="1" parent="1">
          <mxGeometry x="311" y="122.5" width="53" height="56" as="geometry" />
        </mxCell>
        <mxCell id="5zzfdvalp0ISnl_wuwMz-96" value="&lt;div&gt;DJ Controller&lt;/div&gt;" style="sketch=0;pointerEvents=1;shadow=0;dashed=0;html=1;strokeColor=none;fillColor=#505050;labelPosition=center;verticalLabelPosition=bottom;verticalAlign=top;outlineConnect=0;align=center;shape=mxgraph.office.devices.cd_dvd;" vertex="1" parent="1">
          <mxGeometry x="119.5" y="126" width="49" height="49" as="geometry" />
        </mxCell>
        <mxCell id="5zzfdvalp0ISnl_wuwMz-130" value="" style="edgeStyle=elbowEdgeStyle;elbow=horizontal;strokeColor=#990000;strokeWidth=2" edge="1" parent="1">
          <mxGeometry width="100" height="100" relative="1" as="geometry">
            <mxPoint x="368" y="151" as="sourcePoint" />
            <mxPoint x="820" y="446" as="targetPoint" />
            <Array as="points">
              <mxPoint x="519" y="298" />
            </Array>
          </mxGeometry>
        </mxCell>
        <mxCell id="5zzfdvalp0ISnl_wuwMz-305" value="SRT" style="edgeLabel;html=1;align=center;verticalAlign=middle;resizable=0;points=[];fontSize=12;" vertex="1" connectable="0" parent="5zzfdvalp0ISnl_wuwMz-130">
          <mxGeometry x="0.3732" y="3" relative="1" as="geometry">
            <mxPoint as="offset" />
          </mxGeometry>
        </mxCell>
        <mxCell id="5zzfdvalp0ISnl_wuwMz-135" value="" style="edgeStyle=elbowEdgeStyle;elbow=horizontal;strokeColor=#990000;strokeWidth=2" edge="1" parent="1" target="5zzfdvalp0ISnl_wuwMz-110">
          <mxGeometry width="100" height="100" relative="1" as="geometry">
            <mxPoint x="144.5" y="196" as="sourcePoint" />
            <mxPoint x="144" y="216" as="targetPoint" />
            <Array as="points">
              <mxPoint x="143.5" y="196" />
            </Array>
          </mxGeometry>
        </mxCell>
        <mxCell id="5zzfdvalp0ISnl_wuwMz-136" value="USB" style="edgeLabel;html=1;align=center;verticalAlign=middle;resizable=0;points=[];fontSize=8;" vertex="1" connectable="0" parent="5zzfdvalp0ISnl_wuwMz-135">
          <mxGeometry x="-0.1459" y="1" relative="1" as="geometry">
            <mxPoint as="offset" />
          </mxGeometry>
        </mxCell>
        <mxCell id="5zzfdvalp0ISnl_wuwMz-99" value="&lt;div&gt;Stream Web&lt;/div&gt;&lt;div&gt;Control Panel&lt;br&gt;&lt;/div&gt;" style="sketch=0;pointerEvents=1;shadow=0;dashed=0;html=1;strokeColor=none;fillColor=#505050;labelPosition=center;verticalLabelPosition=bottom;verticalAlign=top;outlineConnect=0;align=center;shape=mxgraph.office.servers.server_side_code;" vertex="1" parent="1">
          <mxGeometry x="1125.5" y="268" width="49" height="56" as="geometry" />
        </mxCell>
        <mxCell id="5zzfdvalp0ISnl_wuwMz-100" value="&lt;div&gt;SRT Ingest&amp;nbsp;&lt;/div&gt;&lt;div&gt;- Instances hosted&lt;/div&gt;&lt;div&gt;&amp;nbsp;in Region/AZ closest to DJ&lt;/div&gt;" style="sketch=0;pointerEvents=1;shadow=0;dashed=0;html=1;strokeColor=none;fillColor=#505050;labelPosition=center;verticalLabelPosition=bottom;verticalAlign=top;outlineConnect=0;align=center;shape=mxgraph.office.servers.server_generic;" vertex="1" parent="1">
          <mxGeometry x="827" y="420" width="27" height="52" as="geometry" />
        </mxCell>
        <mxCell id="5zzfdvalp0ISnl_wuwMz-146" value="&lt;div&gt;DJ Stream Switcher&lt;/div&gt;&lt;div&gt;&amp;nbsp;for VJ or route to Final&lt;br&gt;&lt;/div&gt;" style="sketch=0;pointerEvents=1;shadow=0;dashed=0;html=1;strokeColor=none;fillColor=#505050;labelPosition=center;verticalLabelPosition=bottom;verticalAlign=top;outlineConnect=0;align=center;shape=mxgraph.office.servers.server_generic;" vertex="1" parent="1">
          <mxGeometry x="1000" y="508" width="27" height="52" as="geometry" />
        </mxCell>
        <mxCell id="5zzfdvalp0ISnl_wuwMz-147" value="" style="edgeStyle=elbowEdgeStyle;elbow=horizontal;strokeColor=#990000;strokeWidth=2" edge="1" parent="1">
          <mxGeometry width="100" height="100" relative="1" as="geometry">
            <mxPoint x="870" y="446" as="sourcePoint" />
            <mxPoint x="993" y="532" as="targetPoint" />
            <Array as="points">
              <mxPoint x="930" y="560" />
            </Array>
          </mxGeometry>
        </mxCell>
        <mxCell id="5zzfdvalp0ISnl_wuwMz-325" value="SRT" style="edgeLabel;html=1;align=center;verticalAlign=middle;resizable=0;points=[];fontSize=12;" vertex="1" connectable="0" parent="5zzfdvalp0ISnl_wuwMz-147">
          <mxGeometry x="-0.799" y="2" relative="1" as="geometry">
            <mxPoint as="offset" />
          </mxGeometry>
        </mxCell>
        <mxCell id="5zzfdvalp0ISnl_wuwMz-149" value="" style="edgeStyle=elbowEdgeStyle;elbow=horizontal;strokeColor=#990000;strokeWidth=2" edge="1" parent="1">
          <mxGeometry width="100" height="100" relative="1" as="geometry">
            <mxPoint x="1124" y="370" as="sourcePoint" />
            <mxPoint x="1037" y="531" as="targetPoint" />
            <Array as="points">
              <mxPoint x="1124" y="529" />
            </Array>
          </mxGeometry>
        </mxCell>
        <mxCell id="5zzfdvalp0ISnl_wuwMz-152" value="API" style="edgeLabel;html=1;align=center;verticalAlign=middle;resizable=0;points=[];fontSize=12;" vertex="1" connectable="0" parent="5zzfdvalp0ISnl_wuwMz-149">
          <mxGeometry x="-0.3502" y="-2" relative="1" as="geometry">
            <mxPoint as="offset" />
          </mxGeometry>
        </mxCell>
        <mxCell id="5zzfdvalp0ISnl_wuwMz-157" value="VR Client" style="sketch=0;pointerEvents=1;shadow=0;dashed=0;html=1;strokeColor=none;fillColor=#505050;labelPosition=center;verticalLabelPosition=bottom;verticalAlign=top;outlineConnect=0;align=center;shape=mxgraph.office.devices.workstation;" vertex="1" parent="1">
          <mxGeometry x="117.5" y="299" width="53" height="56" as="geometry" />
        </mxCell>
        <mxCell id="5zzfdvalp0ISnl_wuwMz-158" value="" style="sketch=0;pointerEvents=1;shadow=0;dashed=0;html=1;strokeColor=none;fillColor=#505050;labelPosition=center;verticalLabelPosition=bottom;verticalAlign=top;outlineConnect=0;align=center;shape=mxgraph.office.users.user;" vertex="1" parent="1">
          <mxGeometry x="45" y="406" width="32" height="35" as="geometry" />
        </mxCell>
        <mxCell id="5zzfdvalp0ISnl_wuwMz-160" value="" style="edgeStyle=elbowEdgeStyle;elbow=horizontal;strokeColor=#990000;strokeWidth=2" edge="1" parent="1">
          <mxGeometry width="100" height="100" relative="1" as="geometry">
            <mxPoint x="173" y="519" as="sourcePoint" />
            <mxPoint x="345" y="489" as="targetPoint" />
            <Array as="points">
              <mxPoint x="345" y="509" />
            </Array>
          </mxGeometry>
        </mxCell>
        <mxCell id="5zzfdvalp0ISnl_wuwMz-161" value="&lt;div&gt;Capture Card&lt;/div&gt;&lt;div&gt;&amp;nbsp;or NDI&lt;/div&gt;" style="edgeLabel;html=1;align=center;verticalAlign=middle;resizable=0;points=[];fontSize=10;fontStyle=1" vertex="1" connectable="0" parent="5zzfdvalp0ISnl_wuwMz-160">
          <mxGeometry x="-0.2179" y="-1" relative="1" as="geometry">
            <mxPoint as="offset" />
          </mxGeometry>
        </mxCell>
        <mxCell id="5zzfdvalp0ISnl_wuwMz-164" value="" style="edgeStyle=elbowEdgeStyle;elbow=horizontal;strokeColor=#990000;strokeWidth=2" edge="1" parent="1">
          <mxGeometry width="100" height="100" relative="1" as="geometry">
            <mxPoint x="65" y="399" as="sourcePoint" />
            <mxPoint x="115" y="339" as="targetPoint" />
            <Array as="points">
              <mxPoint x="65" y="339" />
            </Array>
          </mxGeometry>
        </mxCell>
        <mxCell id="5zzfdvalp0ISnl_wuwMz-165" value="" style="edgeStyle=elbowEdgeStyle;elbow=horizontal;strokeColor=#990000;strokeWidth=2" edge="1" parent="1">
          <mxGeometry width="100" height="100" relative="1" as="geometry">
            <mxPoint x="65" y="449" as="sourcePoint" />
            <mxPoint x="115" y="516" as="targetPoint" />
            <Array as="points">
              <mxPoint x="65" y="516" />
            </Array>
          </mxGeometry>
        </mxCell>
        <mxCell id="5zzfdvalp0ISnl_wuwMz-166" value="" style="edgeStyle=elbowEdgeStyle;elbow=horizontal;strokeColor=#990000;strokeWidth=2" edge="1" parent="1">
          <mxGeometry width="100" height="100" relative="1" as="geometry">
            <mxPoint x="77" y="423.26" as="sourcePoint" />
            <mxPoint x="115" y="423" as="targetPoint" />
            <Array as="points">
              <mxPoint x="105" y="423.26" />
            </Array>
          </mxGeometry>
        </mxCell>
        <mxCell id="5zzfdvalp0ISnl_wuwMz-167" value="Stream / &lt;br&gt;Local VOD PC" style="sketch=0;pointerEvents=1;shadow=0;dashed=0;html=1;strokeColor=none;fillColor=#505050;labelPosition=center;verticalLabelPosition=bottom;verticalAlign=top;outlineConnect=0;align=center;shape=mxgraph.office.devices.workstation;" vertex="1" parent="1">
          <mxGeometry x="311" y="395.5" width="53" height="56" as="geometry" />
        </mxCell>
        <mxCell id="5zzfdvalp0ISnl_wuwMz-170" value="" style="edgeStyle=elbowEdgeStyle;elbow=horizontal;strokeColor=#990000;strokeWidth=2" edge="1" parent="1">
          <mxGeometry width="100" height="100" relative="1" as="geometry">
            <mxPoint x="144.5" y="469" as="sourcePoint" />
            <mxPoint x="143.5" y="499" as="targetPoint" />
            <Array as="points">
              <mxPoint x="143.5" y="469" />
            </Array>
          </mxGeometry>
        </mxCell>
        <mxCell id="5zzfdvalp0ISnl_wuwMz-171" value="USB" style="edgeLabel;html=1;align=center;verticalAlign=middle;resizable=0;points=[];fontSize=8;" vertex="1" connectable="0" parent="5zzfdvalp0ISnl_wuwMz-170">
          <mxGeometry x="-0.1459" y="1" relative="1" as="geometry">
            <mxPoint as="offset" />
          </mxGeometry>
        </mxCell>
        <mxCell id="5zzfdvalp0ISnl_wuwMz-172" value="USB Controller or Console" style="sketch=0;pointerEvents=1;shadow=0;dashed=0;html=1;strokeColor=none;fillColor=#505050;labelPosition=center;verticalLabelPosition=bottom;verticalAlign=top;outlineConnect=0;align=center;shape=mxgraph.office.concepts.calculator;" vertex="1" parent="1">
          <mxGeometry x="128" y="400.5" width="32" height="46" as="geometry" />
        </mxCell>
        <mxCell id="5zzfdvalp0ISnl_wuwMz-173" value="Resolume Arena PC" style="sketch=0;pointerEvents=1;shadow=0;dashed=0;html=1;strokeColor=none;fillColor=#505050;labelPosition=center;verticalLabelPosition=bottom;verticalAlign=top;outlineConnect=0;align=center;shape=mxgraph.office.devices.workstation;" vertex="1" parent="1">
          <mxGeometry x="117.5" y="501" width="53" height="56" as="geometry" />
        </mxCell>
        <mxCell id="5zzfdvalp0ISnl_wuwMz-178" value="DJ" style="text;strokeColor=none;fillColor=none;html=1;align=center;verticalAlign=middle;whiteSpace=wrap;rounded=0;fontSize=16;fontStyle=1" vertex="1" parent="1">
          <mxGeometry x="311" y="22" width="60" height="30" as="geometry" />
        </mxCell>
        <mxCell id="5zzfdvalp0ISnl_wuwMz-179" value="VJ" style="text;strokeColor=none;fillColor=none;html=1;align=center;verticalAlign=middle;whiteSpace=wrap;rounded=0;fontSize=16;fontStyle=1" vertex="1" parent="1">
          <mxGeometry x="311" y="294" width="60" height="30" as="geometry" />
        </mxCell>
        <mxCell id="5zzfdvalp0ISnl_wuwMz-181" value="" style="edgeStyle=elbowEdgeStyle;elbow=horizontal;strokeColor=#990000;strokeWidth=2;" edge="1" parent="1">
          <mxGeometry width="100" height="100" relative="1" as="geometry">
            <mxPoint x="990" y="547" as="sourcePoint" />
            <mxPoint x="372" y="424" as="targetPoint" />
            <Array as="points">
              <mxPoint x="496" y="505" />
            </Array>
          </mxGeometry>
        </mxCell>
        <mxCell id="5zzfdvalp0ISnl_wuwMz-321" value="SRT" style="edgeLabel;html=1;align=center;verticalAlign=middle;resizable=0;points=[];fontSize=12;" vertex="1" connectable="0" parent="5zzfdvalp0ISnl_wuwMz-181">
          <mxGeometry x="0.058" y="1" relative="1" as="geometry">
            <mxPoint as="offset" />
          </mxGeometry>
        </mxCell>
        <mxCell id="5zzfdvalp0ISnl_wuwMz-184" value="" style="edgeStyle=elbowEdgeStyle;elbow=horizontal;strokeColor=#990000;strokeWidth=2" edge="1" parent="1">
          <mxGeometry width="100" height="100" relative="1" as="geometry">
            <mxPoint x="373" y="438" as="sourcePoint" />
            <mxPoint x="660" y="589" as="targetPoint" />
            <Array as="points">
              <mxPoint x="466" y="519" />
            </Array>
          </mxGeometry>
        </mxCell>
        <mxCell id="5zzfdvalp0ISnl_wuwMz-367" value="SRT" style="edgeLabel;html=1;align=center;verticalAlign=middle;resizable=0;points=[];fontSize=12;" vertex="1" connectable="0" parent="5zzfdvalp0ISnl_wuwMz-184">
          <mxGeometry x="0.5845" y="-1" relative="1" as="geometry">
            <mxPoint as="offset" />
          </mxGeometry>
        </mxCell>
        <mxCell id="5zzfdvalp0ISnl_wuwMz-186" value="&lt;div&gt;VRCDN Ingest&amp;nbsp;&lt;/div&gt;&lt;div&gt;US East Coast&lt;/div&gt;" style="sketch=0;pointerEvents=1;shadow=0;dashed=0;html=1;strokeColor=none;fillColor=#505050;labelPosition=center;verticalLabelPosition=bottom;verticalAlign=top;outlineConnect=0;align=center;shape=mxgraph.office.servers.server_generic;" vertex="1" parent="1">
          <mxGeometry x="1510" y="102" width="27" height="52" as="geometry" />
        </mxCell>
        <mxCell id="5zzfdvalp0ISnl_wuwMz-188" value="&lt;div&gt;VRCDN Stream Servers&lt;/div&gt;&lt;div&gt;DNS Gelocated&lt;br&gt;&lt;/div&gt;" style="sketch=0;pointerEvents=1;shadow=0;dashed=0;html=1;strokeColor=none;fillColor=#505050;labelPosition=center;verticalLabelPosition=bottom;verticalAlign=top;outlineConnect=0;align=center;shape=mxgraph.office.servers.server_generic;" vertex="1" parent="1">
          <mxGeometry x="1643" y="102" width="27" height="52" as="geometry" />
        </mxCell>
        <mxCell id="5zzfdvalp0ISnl_wuwMz-189" value="&lt;div&gt;VR Client&amp;nbsp;&lt;/div&gt;&lt;div&gt;Video Player&lt;/div&gt;" style="sketch=0;pointerEvents=1;shadow=0;dashed=0;html=1;strokeColor=none;fillColor=#505050;labelPosition=center;verticalLabelPosition=bottom;verticalAlign=top;outlineConnect=0;align=center;shape=mxgraph.office.devices.workstation;" vertex="1" parent="1">
          <mxGeometry x="1773" y="100" width="53" height="56" as="geometry" />
        </mxCell>
        <mxCell id="5zzfdvalp0ISnl_wuwMz-190" value="" style="edgeStyle=elbowEdgeStyle;elbow=horizontal;strokeColor=#990000;strokeWidth=2" edge="1" parent="1">
          <mxGeometry width="100" height="100" relative="1" as="geometry">
            <mxPoint x="1550" y="129" as="sourcePoint" />
            <mxPoint x="1630" y="129" as="targetPoint" />
            <Array as="points">
              <mxPoint x="1593" y="129" />
            </Array>
          </mxGeometry>
        </mxCell>
        <mxCell id="5zzfdvalp0ISnl_wuwMz-191" value="" style="edgeStyle=elbowEdgeStyle;elbow=horizontal;strokeColor=#990000;strokeWidth=2" edge="1" parent="1">
          <mxGeometry width="100" height="100" relative="1" as="geometry">
            <mxPoint x="1683" y="129" as="sourcePoint" />
            <mxPoint x="1763" y="128" as="targetPoint" />
            <Array as="points">
              <mxPoint x="1723" y="129" />
            </Array>
          </mxGeometry>
        </mxCell>
        <mxCell id="5zzfdvalp0ISnl_wuwMz-192" value="&lt;b&gt;&amp;nbsp;RTSP&amp;nbsp; &lt;br&gt;&lt;/b&gt;" style="edgeLabel;html=1;align=center;verticalAlign=middle;resizable=0;points=[];fontSize=8;" vertex="1" connectable="0" parent="5zzfdvalp0ISnl_wuwMz-191">
          <mxGeometry x="-0.1793" y="-1" relative="1" as="geometry">
            <mxPoint as="offset" />
          </mxGeometry>
        </mxCell>
        <mxCell id="5zzfdvalp0ISnl_wuwMz-195" value="" style="rounded=1;whiteSpace=wrap;html=1;fillStyle=solid;fillColor=#FCFCFC;" vertex="1" parent="1">
          <mxGeometry x="40" y="596" width="355" height="296" as="geometry" />
        </mxCell>
        <mxCell id="5zzfdvalp0ISnl_wuwMz-196" value="VR Client" style="sketch=0;pointerEvents=1;shadow=0;dashed=0;html=1;strokeColor=none;fillColor=#505050;labelPosition=center;verticalLabelPosition=bottom;verticalAlign=top;outlineConnect=0;align=center;shape=mxgraph.office.devices.workstation;" vertex="1" parent="1">
          <mxGeometry x="117.5" y="602" width="53" height="56" as="geometry" />
        </mxCell>
        <mxCell id="5zzfdvalp0ISnl_wuwMz-197" value="" style="sketch=0;pointerEvents=1;shadow=0;dashed=0;html=1;strokeColor=none;fillColor=#505050;labelPosition=center;verticalLabelPosition=bottom;verticalAlign=top;outlineConnect=0;align=center;shape=mxgraph.office.users.user;" vertex="1" parent="1">
          <mxGeometry x="45" y="709" width="32" height="35" as="geometry" />
        </mxCell>
        <mxCell id="5zzfdvalp0ISnl_wuwMz-198" value="" style="edgeStyle=elbowEdgeStyle;elbow=horizontal;strokeColor=#990000;strokeWidth=2" edge="1" parent="1">
          <mxGeometry width="100" height="100" relative="1" as="geometry">
            <mxPoint x="173" y="822" as="sourcePoint" />
            <mxPoint x="345" y="792" as="targetPoint" />
            <Array as="points">
              <mxPoint x="345" y="812" />
            </Array>
          </mxGeometry>
        </mxCell>
        <mxCell id="5zzfdvalp0ISnl_wuwMz-199" value="&lt;div&gt;&lt;b&gt;&amp;nbsp;ArtNet&amp;nbsp; &lt;/b&gt;&lt;/div&gt;" style="edgeLabel;html=1;align=center;verticalAlign=middle;resizable=0;points=[];fontSize=12;" vertex="1" connectable="0" parent="5zzfdvalp0ISnl_wuwMz-198">
          <mxGeometry x="-0.2179" y="-1" relative="1" as="geometry">
            <mxPoint as="offset" />
          </mxGeometry>
        </mxCell>
        <mxCell id="5zzfdvalp0ISnl_wuwMz-200" value="" style="edgeStyle=elbowEdgeStyle;elbow=horizontal;strokeColor=#990000;strokeWidth=2" edge="1" parent="1">
          <mxGeometry width="100" height="100" relative="1" as="geometry">
            <mxPoint x="175" y="727" as="sourcePoint" />
            <mxPoint x="305" y="727" as="targetPoint" />
            <Array as="points">
              <mxPoint x="255" y="832" />
            </Array>
          </mxGeometry>
        </mxCell>
        <mxCell id="5zzfdvalp0ISnl_wuwMz-201" value="&lt;div&gt;&lt;b&gt;&amp;nbsp; ArtNet&amp;nbsp; &lt;br&gt;&lt;/b&gt;&lt;/div&gt;" style="edgeLabel;html=1;align=center;verticalAlign=middle;resizable=0;points=[];fontSize=12;" vertex="1" connectable="0" parent="5zzfdvalp0ISnl_wuwMz-200">
          <mxGeometry x="-0.2179" y="-1" relative="1" as="geometry">
            <mxPoint as="offset" />
          </mxGeometry>
        </mxCell>
        <mxCell id="5zzfdvalp0ISnl_wuwMz-202" value="" style="edgeStyle=elbowEdgeStyle;elbow=horizontal;strokeColor=#990000;strokeWidth=2" edge="1" parent="1">
          <mxGeometry width="100" height="100" relative="1" as="geometry">
            <mxPoint x="65" y="702" as="sourcePoint" />
            <mxPoint x="115" y="642" as="targetPoint" />
            <Array as="points">
              <mxPoint x="65" y="642" />
            </Array>
          </mxGeometry>
        </mxCell>
        <mxCell id="5zzfdvalp0ISnl_wuwMz-203" value="" style="edgeStyle=elbowEdgeStyle;elbow=horizontal;strokeColor=#990000;strokeWidth=2" edge="1" parent="1">
          <mxGeometry width="100" height="100" relative="1" as="geometry">
            <mxPoint x="65" y="752" as="sourcePoint" />
            <mxPoint x="115" y="819" as="targetPoint" />
            <Array as="points">
              <mxPoint x="65" y="819" />
            </Array>
          </mxGeometry>
        </mxCell>
        <mxCell id="5zzfdvalp0ISnl_wuwMz-204" value="" style="edgeStyle=elbowEdgeStyle;elbow=horizontal;strokeColor=#990000;strokeWidth=2" edge="1" parent="1">
          <mxGeometry width="100" height="100" relative="1" as="geometry">
            <mxPoint x="77" y="726.26" as="sourcePoint" />
            <mxPoint x="115" y="726" as="targetPoint" />
            <Array as="points">
              <mxPoint x="105" y="726.26" />
            </Array>
          </mxGeometry>
        </mxCell>
        <mxCell id="5zzfdvalp0ISnl_wuwMz-205" value="VRSL / Stream / &lt;br&gt;Local VOD PC" style="sketch=0;pointerEvents=1;shadow=0;dashed=0;html=1;strokeColor=none;fillColor=#505050;labelPosition=center;verticalLabelPosition=bottom;verticalAlign=top;outlineConnect=0;align=center;shape=mxgraph.office.devices.workstation;" vertex="1" parent="1">
          <mxGeometry x="311" y="698.5" width="53" height="56" as="geometry" />
        </mxCell>
        <mxCell id="5zzfdvalp0ISnl_wuwMz-206" value="" style="edgeStyle=elbowEdgeStyle;elbow=horizontal;strokeColor=#990000;strokeWidth=2" edge="1" parent="1">
          <mxGeometry width="100" height="100" relative="1" as="geometry">
            <mxPoint x="144.5" y="772" as="sourcePoint" />
            <mxPoint x="143.5" y="802" as="targetPoint" />
            <Array as="points">
              <mxPoint x="143.5" y="772" />
            </Array>
          </mxGeometry>
        </mxCell>
        <mxCell id="5zzfdvalp0ISnl_wuwMz-207" value="USB" style="edgeLabel;html=1;align=center;verticalAlign=middle;resizable=0;points=[];fontSize=8;" vertex="1" connectable="0" parent="5zzfdvalp0ISnl_wuwMz-206">
          <mxGeometry x="-0.1459" y="1" relative="1" as="geometry">
            <mxPoint as="offset" />
          </mxGeometry>
        </mxCell>
        <mxCell id="5zzfdvalp0ISnl_wuwMz-208" value="DMX Controller or Console" style="sketch=0;pointerEvents=1;shadow=0;dashed=0;html=1;strokeColor=none;fillColor=#505050;labelPosition=center;verticalLabelPosition=bottom;verticalAlign=top;outlineConnect=0;align=center;shape=mxgraph.office.concepts.calculator;" vertex="1" parent="1">
          <mxGeometry x="128" y="703.5" width="32" height="46" as="geometry" />
        </mxCell>
        <mxCell id="5zzfdvalp0ISnl_wuwMz-209" value="DMX Software &amp;amp; Visualiser" style="sketch=0;pointerEvents=1;shadow=0;dashed=0;html=1;strokeColor=none;fillColor=#505050;labelPosition=center;verticalLabelPosition=bottom;verticalAlign=top;outlineConnect=0;align=center;shape=mxgraph.office.devices.workstation;" vertex="1" parent="1">
          <mxGeometry x="117.5" y="804" width="53" height="56" as="geometry" />
        </mxCell>
        <mxCell id="5zzfdvalp0ISnl_wuwMz-210" value="LD" style="text;strokeColor=none;fillColor=none;html=1;align=center;verticalAlign=middle;whiteSpace=wrap;rounded=0;fontSize=16;fontStyle=1" vertex="1" parent="1">
          <mxGeometry x="307.5" y="596" width="60" height="30" as="geometry" />
        </mxCell>
        <mxCell id="5zzfdvalp0ISnl_wuwMz-212" value="&lt;div&gt;SRT Ingest&amp;nbsp;&lt;/div&gt;&lt;div&gt;- Instance hosted&lt;/div&gt;&lt;div&gt;&amp;nbsp;in Region/AZ closest to VJ&lt;/div&gt;" style="sketch=0;pointerEvents=1;shadow=0;dashed=0;html=1;strokeColor=none;fillColor=#505050;labelPosition=center;verticalLabelPosition=bottom;verticalAlign=top;outlineConnect=0;align=center;shape=mxgraph.office.servers.server_generic;" vertex="1" parent="1">
          <mxGeometry x="668" y="560" width="27" height="52" as="geometry" />
        </mxCell>
        <mxCell id="5zzfdvalp0ISnl_wuwMz-213" value="&lt;div&gt;SRT Ingest&amp;nbsp;&lt;/div&gt;&lt;div&gt;- Instances hosted&lt;/div&gt;&lt;div&gt;&amp;nbsp;in Region/AZ closest to LD&lt;/div&gt;" style="sketch=0;pointerEvents=1;shadow=0;dashed=0;html=1;strokeColor=none;fillColor=#505050;labelPosition=center;verticalLabelPosition=bottom;verticalAlign=top;outlineConnect=0;align=center;shape=mxgraph.office.servers.server_generic;" vertex="1" parent="1">
          <mxGeometry x="817" y="716" width="27" height="52" as="geometry" />
        </mxCell>
        <mxCell id="5zzfdvalp0ISnl_wuwMz-220" value="" style="edgeStyle=elbowEdgeStyle;elbow=horizontal;strokeColor=#990000;strokeWidth=2" edge="1" parent="1">
          <mxGeometry width="100" height="100" relative="1" as="geometry">
            <mxPoint x="990" y="672" as="sourcePoint" />
            <mxPoint x="374" y="727" as="targetPoint" />
            <Array as="points">
              <mxPoint x="470" y="820" />
            </Array>
          </mxGeometry>
        </mxCell>
        <mxCell id="5zzfdvalp0ISnl_wuwMz-366" value="SRT" style="edgeLabel;html=1;align=center;verticalAlign=middle;resizable=0;points=[];fontSize=12;" vertex="1" connectable="0" parent="5zzfdvalp0ISnl_wuwMz-220">
          <mxGeometry x="0.3145" relative="1" as="geometry">
            <mxPoint as="offset" />
          </mxGeometry>
        </mxCell>
        <mxCell id="5zzfdvalp0ISnl_wuwMz-221" value="" style="edgeStyle=elbowEdgeStyle;elbow=horizontal;strokeColor=#990000;strokeWidth=2" edge="1" parent="1">
          <mxGeometry width="100" height="100" relative="1" as="geometry">
            <mxPoint x="373" y="742" as="sourcePoint" />
            <mxPoint x="807" y="742" as="targetPoint" />
            <Array as="points" />
          </mxGeometry>
        </mxCell>
        <mxCell id="5zzfdvalp0ISnl_wuwMz-323" value="SRT" style="edgeLabel;html=1;align=center;verticalAlign=middle;resizable=0;points=[];fontSize=12;" vertex="1" connectable="0" parent="5zzfdvalp0ISnl_wuwMz-221">
          <mxGeometry x="-0.2028" relative="1" as="geometry">
            <mxPoint as="offset" />
          </mxGeometry>
        </mxCell>
        <mxCell id="5zzfdvalp0ISnl_wuwMz-224" value="" style="edgeStyle=elbowEdgeStyle;elbow=horizontal;strokeColor=#990000;strokeWidth=2" edge="1" parent="1">
          <mxGeometry width="100" height="100" relative="1" as="geometry">
            <mxPoint x="704" y="592" as="sourcePoint" />
            <mxPoint x="992" y="658" as="targetPoint" />
            <Array as="points">
              <mxPoint x="910" y="630" />
            </Array>
          </mxGeometry>
        </mxCell>
        <mxCell id="5zzfdvalp0ISnl_wuwMz-225" value="SRT" style="edgeLabel;html=1;align=center;verticalAlign=middle;resizable=0;points=[];fontSize=12;" vertex="1" connectable="0" parent="5zzfdvalp0ISnl_wuwMz-224">
          <mxGeometry x="-0.428" y="1" relative="1" as="geometry">
            <mxPoint as="offset" />
          </mxGeometry>
        </mxCell>
        <mxCell id="5zzfdvalp0ISnl_wuwMz-228" value="PC" style="sketch=0;pointerEvents=1;shadow=0;dashed=0;html=1;strokeColor=none;fillColor=#505050;labelPosition=center;verticalLabelPosition=bottom;verticalAlign=top;outlineConnect=0;align=center;shape=mxgraph.office.devices.workstation;" vertex="1" parent="1">
          <mxGeometry x="688.5" y="179" width="53" height="56" as="geometry" />
        </mxCell>
        <mxCell id="5zzfdvalp0ISnl_wuwMz-229" value="Broadcast Team" style="text;strokeColor=none;fillColor=none;html=1;align=center;verticalAlign=middle;whiteSpace=wrap;rounded=0;fontSize=16;fontStyle=1" vertex="1" parent="1">
          <mxGeometry x="681.5" y="40" width="60" height="30" as="geometry" />
        </mxCell>
        <mxCell id="5zzfdvalp0ISnl_wuwMz-230" value="" style="edgeStyle=elbowEdgeStyle;elbow=horizontal;strokeColor=#990000;strokeWidth=2" edge="1" parent="1">
          <mxGeometry width="100" height="100" relative="1" as="geometry">
            <mxPoint x="750" y="207" as="sourcePoint" />
            <mxPoint x="1120" y="290" as="targetPoint" />
            <Array as="points">
              <mxPoint x="1060" y="260" />
            </Array>
          </mxGeometry>
        </mxCell>
        <mxCell id="5zzfdvalp0ISnl_wuwMz-232" value="&lt;b&gt;&amp;nbsp;HTTPS&amp;nbsp; &lt;br&gt;&lt;/b&gt;" style="edgeLabel;html=1;align=center;verticalAlign=middle;resizable=0;points=[];fontSize=12;" vertex="1" connectable="0" parent="5zzfdvalp0ISnl_wuwMz-230">
          <mxGeometry x="-0.1584" y="-3" relative="1" as="geometry">
            <mxPoint as="offset" />
          </mxGeometry>
        </mxCell>
        <mxCell id="5zzfdvalp0ISnl_wuwMz-233" value="PC" style="sketch=0;pointerEvents=1;shadow=0;dashed=0;html=1;strokeColor=none;fillColor=#505050;labelPosition=center;verticalLabelPosition=bottom;verticalAlign=top;outlineConnect=0;align=center;shape=mxgraph.office.devices.workstation;" vertex="1" parent="1">
          <mxGeometry x="688.5" y="88" width="53" height="56" as="geometry" />
        </mxCell>
        <mxCell id="5zzfdvalp0ISnl_wuwMz-234" value="PC" style="sketch=0;pointerEvents=1;shadow=0;dashed=0;html=1;strokeColor=none;fillColor=#505050;labelPosition=center;verticalLabelPosition=bottom;verticalAlign=top;outlineConnect=0;align=center;shape=mxgraph.office.devices.workstation;" vertex="1" parent="1">
          <mxGeometry x="688.5" y="270" width="53" height="56" as="geometry" />
        </mxCell>
        <mxCell id="5zzfdvalp0ISnl_wuwMz-235" value="" style="edgeStyle=elbowEdgeStyle;elbow=horizontal;strokeColor=#990000;strokeWidth=2" edge="1" parent="1">
          <mxGeometry width="100" height="100" relative="1" as="geometry">
            <mxPoint x="750" y="116" as="sourcePoint" />
            <mxPoint x="1120" y="280" as="targetPoint" />
            <Array as="points">
              <mxPoint x="1070" y="200" />
            </Array>
          </mxGeometry>
        </mxCell>
        <mxCell id="5zzfdvalp0ISnl_wuwMz-237" value="&lt;b&gt;&amp;nbsp;HTTPS&amp;nbsp; &lt;br&gt;&lt;/b&gt;" style="edgeLabel;html=1;align=center;verticalAlign=middle;resizable=0;points=[];fontSize=12;" vertex="1" connectable="0" parent="5zzfdvalp0ISnl_wuwMz-235">
          <mxGeometry x="-0.1584" y="-3" relative="1" as="geometry">
            <mxPoint as="offset" />
          </mxGeometry>
        </mxCell>
        <mxCell id="5zzfdvalp0ISnl_wuwMz-238" value="" style="edgeStyle=elbowEdgeStyle;elbow=horizontal;strokeColor=#990000;strokeWidth=2" edge="1" parent="1">
          <mxGeometry width="100" height="100" relative="1" as="geometry">
            <mxPoint x="750" y="300" as="sourcePoint" />
            <mxPoint x="1120" y="300" as="targetPoint" />
            <Array as="points">
              <mxPoint x="1010" y="298" />
            </Array>
          </mxGeometry>
        </mxCell>
        <mxCell id="5zzfdvalp0ISnl_wuwMz-239" value="&lt;b&gt;&amp;nbsp;HTTPS&amp;nbsp; &lt;br&gt;&lt;/b&gt;" style="edgeLabel;html=1;align=center;verticalAlign=middle;resizable=0;points=[];fontSize=12;" vertex="1" connectable="0" parent="5zzfdvalp0ISnl_wuwMz-238">
          <mxGeometry x="-0.1584" y="-3" relative="1" as="geometry">
            <mxPoint as="offset" />
          </mxGeometry>
        </mxCell>
        <mxCell id="5zzfdvalp0ISnl_wuwMz-240" value="&lt;div&gt;VJ Stream Switcher&lt;/div&gt;&lt;div&gt;for LD or route to Final&lt;br&gt;&lt;/div&gt;" style="sketch=0;pointerEvents=1;shadow=0;dashed=0;html=1;strokeColor=none;fillColor=#505050;labelPosition=center;verticalLabelPosition=bottom;verticalAlign=top;outlineConnect=0;align=center;shape=mxgraph.office.servers.server_generic;" vertex="1" parent="1">
          <mxGeometry x="1000" y="640" width="27" height="52" as="geometry" />
        </mxCell>
        <mxCell id="5zzfdvalp0ISnl_wuwMz-241" value="&lt;div&gt;Final Stream&lt;/div&gt;&lt;div&gt;&amp;nbsp;Aggregator for&lt;/div&gt;&lt;div&gt;VRCDN hand-off&lt;br&gt;&lt;/div&gt;" style="sketch=0;pointerEvents=1;shadow=0;dashed=0;html=1;strokeColor=none;fillColor=#505050;labelPosition=center;verticalLabelPosition=bottom;verticalAlign=top;outlineConnect=0;align=center;shape=mxgraph.office.servers.server_generic;" vertex="1" parent="1">
          <mxGeometry x="1260" y="706" width="27" height="52" as="geometry" />
        </mxCell>
        <mxCell id="5zzfdvalp0ISnl_wuwMz-242" value="" style="edgeStyle=elbowEdgeStyle;elbow=horizontal;strokeColor=#990000;strokeWidth=2" edge="1" parent="1">
          <mxGeometry width="100" height="100" relative="1" as="geometry">
            <mxPoint x="784" y="904" as="sourcePoint" />
            <mxPoint x="1249" y="745" as="targetPoint" />
            <Array as="points">
              <mxPoint x="1186" y="845" />
            </Array>
          </mxGeometry>
        </mxCell>
        <mxCell id="5zzfdvalp0ISnl_wuwMz-346" value="SRT" style="edgeLabel;html=1;align=center;verticalAlign=middle;resizable=0;points=[];fontSize=12;" vertex="1" connectable="0" parent="5zzfdvalp0ISnl_wuwMz-242">
          <mxGeometry x="-0.6638" y="1" relative="1" as="geometry">
            <mxPoint as="offset" />
          </mxGeometry>
        </mxCell>
        <mxCell id="5zzfdvalp0ISnl_wuwMz-244" value="" style="edgeStyle=elbowEdgeStyle;elbow=horizontal;strokeColor=#990000;strokeWidth=2" edge="1" parent="1">
          <mxGeometry width="100" height="100" relative="1" as="geometry">
            <mxPoint x="1141" y="372" as="sourcePoint" />
            <mxPoint x="1039" y="669" as="targetPoint" />
            <Array as="points">
              <mxPoint x="1141" y="669" />
            </Array>
          </mxGeometry>
        </mxCell>
        <mxCell id="5zzfdvalp0ISnl_wuwMz-245" value="API" style="edgeLabel;html=1;align=center;verticalAlign=middle;resizable=0;points=[];fontSize=12;" vertex="1" connectable="0" parent="5zzfdvalp0ISnl_wuwMz-244">
          <mxGeometry x="-0.3502" y="-2" relative="1" as="geometry">
            <mxPoint as="offset" />
          </mxGeometry>
        </mxCell>
        <mxCell id="5zzfdvalp0ISnl_wuwMz-246" value="" style="edgeStyle=elbowEdgeStyle;elbow=horizontal;strokeColor=#990000;strokeWidth=2" edge="1" parent="1">
          <mxGeometry width="100" height="100" relative="1" as="geometry">
            <mxPoint x="1184" y="372" as="sourcePoint" />
            <mxPoint x="1249" y="728" as="targetPoint" />
            <Array as="points">
              <mxPoint x="1184" y="548" />
            </Array>
          </mxGeometry>
        </mxCell>
        <mxCell id="5zzfdvalp0ISnl_wuwMz-331" value="API" style="edgeLabel;html=1;align=center;verticalAlign=middle;resizable=0;points=[];fontSize=12;" vertex="1" connectable="0" parent="5zzfdvalp0ISnl_wuwMz-246">
          <mxGeometry x="0.2998" relative="1" as="geometry">
            <mxPoint as="offset" />
          </mxGeometry>
        </mxCell>
        <mxCell id="5zzfdvalp0ISnl_wuwMz-252" value="AWS Public Cloud" style="text;strokeColor=none;fillColor=none;html=1;align=center;verticalAlign=middle;whiteSpace=wrap;rounded=0;fontSize=16;fontStyle=1" vertex="1" parent="1">
          <mxGeometry x="1400" y="304" width="60" height="30" as="geometry" />
        </mxCell>
        <mxCell id="5zzfdvalp0ISnl_wuwMz-254" value="VRCDN" style="text;strokeColor=none;fillColor=none;html=1;align=center;verticalAlign=middle;whiteSpace=wrap;rounded=0;fontSize=16;fontStyle=1" vertex="1" parent="1">
          <mxGeometry x="1790" y="50" width="60" height="30" as="geometry" />
        </mxCell>
        <mxCell id="5zzfdvalp0ISnl_wuwMz-256" value="" style="edgeStyle=elbowEdgeStyle;elbow=horizontal;strokeColor=#990000;strokeWidth=2" edge="1" parent="1">
          <mxGeometry width="100" height="100" relative="1" as="geometry">
            <mxPoint x="1299" y="733" as="sourcePoint" />
            <mxPoint x="1524" y="200" as="targetPoint" />
            <Array as="points">
              <mxPoint x="1524" y="510" />
            </Array>
          </mxGeometry>
        </mxCell>
        <mxCell id="5zzfdvalp0ISnl_wuwMz-317" value="RTMP" style="edgeLabel;html=1;align=center;verticalAlign=middle;resizable=0;points=[];fontSize=12;" vertex="1" connectable="0" parent="5zzfdvalp0ISnl_wuwMz-256">
          <mxGeometry x="-0.6887" y="-1" relative="1" as="geometry">
            <mxPoint as="offset" />
          </mxGeometry>
        </mxCell>
        <mxCell id="5zzfdvalp0ISnl_wuwMz-259" value="&lt;div&gt;Final Stream&lt;/div&gt;&lt;div&gt;&amp;nbsp;VOD Recorder &lt;br&gt;&lt;/div&gt;" style="sketch=0;pointerEvents=1;shadow=0;dashed=0;html=1;strokeColor=none;fillColor=#505050;labelPosition=center;verticalLabelPosition=bottom;verticalAlign=top;outlineConnect=0;align=center;shape=mxgraph.office.servers.server_generic;" vertex="1" parent="1">
          <mxGeometry x="1260" y="540" width="27" height="52" as="geometry" />
        </mxCell>
        <mxCell id="5zzfdvalp0ISnl_wuwMz-262" value="Broadcast Team" style="text;strokeColor=none;fillColor=none;html=1;align=center;verticalAlign=middle;whiteSpace=wrap;rounded=0;fontSize=16;fontStyle=1" vertex="1" parent="1">
          <mxGeometry x="1780" y="340" width="60" height="30" as="geometry" />
        </mxCell>
        <mxCell id="5zzfdvalp0ISnl_wuwMz-263" value="Dedicated VR Client" style="sketch=0;pointerEvents=1;shadow=0;dashed=0;html=1;strokeColor=none;fillColor=#505050;labelPosition=center;verticalLabelPosition=bottom;verticalAlign=top;outlineConnect=0;align=center;shape=mxgraph.office.devices.workstation;" vertex="1" parent="1">
          <mxGeometry x="1620" y="472" width="53" height="56" as="geometry" />
        </mxCell>
        <mxCell id="5zzfdvalp0ISnl_wuwMz-264" value="&lt;div&gt;Dedicated Stream /&lt;/div&gt;&lt;div&gt;&amp;nbsp;Local VOD PC&lt;/div&gt;" style="sketch=0;pointerEvents=1;shadow=0;dashed=0;html=1;strokeColor=none;fillColor=#505050;labelPosition=center;verticalLabelPosition=bottom;verticalAlign=top;outlineConnect=0;align=center;shape=mxgraph.office.devices.workstation;" vertex="1" parent="1">
          <mxGeometry x="1620" y="682" width="53" height="56" as="geometry" />
        </mxCell>
        <mxCell id="5zzfdvalp0ISnl_wuwMz-265" value="" style="edgeStyle=elbowEdgeStyle;elbow=horizontal;strokeColor=#990000;strokeWidth=2" edge="1" parent="1">
          <mxGeometry width="100" height="100" relative="1" as="geometry">
            <mxPoint x="1650" y="556" as="sourcePoint" />
            <mxPoint x="1650" y="666" as="targetPoint" />
            <Array as="points">
              <mxPoint x="1650" y="644" />
            </Array>
          </mxGeometry>
        </mxCell>
        <mxCell id="5zzfdvalp0ISnl_wuwMz-266" value="HDMI Capture Card" style="edgeLabel;html=1;align=center;verticalAlign=middle;resizable=0;points=[];fontSize=12;fontStyle=1" vertex="1" connectable="0" parent="5zzfdvalp0ISnl_wuwMz-265">
          <mxGeometry x="-0.3502" y="-2" relative="1" as="geometry">
            <mxPoint as="offset" />
          </mxGeometry>
        </mxCell>
        <mxCell id="5zzfdvalp0ISnl_wuwMz-267" value="" style="edgeStyle=elbowEdgeStyle;elbow=horizontal;strokeColor=#990000;strokeWidth=2" edge="1" parent="1">
          <mxGeometry width="100" height="100" relative="1" as="geometry">
            <mxPoint x="1890" y="270" as="sourcePoint" />
            <mxPoint x="1680" y="500" as="targetPoint" />
            <Array as="points">
              <mxPoint x="1720" y="370" />
            </Array>
          </mxGeometry>
        </mxCell>
        <mxCell id="5zzfdvalp0ISnl_wuwMz-375" value="&lt;b&gt;ACTIVE&lt;/b&gt;" style="edgeLabel;html=1;align=center;verticalAlign=middle;resizable=0;points=[];fontSize=12;" vertex="1" connectable="0" parent="5zzfdvalp0ISnl_wuwMz-267">
          <mxGeometry x="-0.1045" y="-2" relative="1" as="geometry">
            <mxPoint as="offset" />
          </mxGeometry>
        </mxCell>
        <mxCell id="5zzfdvalp0ISnl_wuwMz-271" value="&lt;div&gt;DNS Geolocated&amp;nbsp;&lt;/div&gt;&lt;div&gt;Twitch Ingest&lt;/div&gt;" style="sketch=0;pointerEvents=1;shadow=0;dashed=0;html=1;strokeColor=none;fillColor=#505050;labelPosition=center;verticalLabelPosition=bottom;verticalAlign=top;outlineConnect=0;align=center;shape=mxgraph.office.servers.server_generic;" vertex="1" parent="1">
          <mxGeometry x="1659" y="920.5" width="27" height="52" as="geometry" />
        </mxCell>
        <mxCell id="5zzfdvalp0ISnl_wuwMz-274" value="&lt;div&gt;DNS Gelocated&lt;/div&gt;&lt;div&gt;YouTube Ingest&lt;/div&gt;" style="sketch=0;pointerEvents=1;shadow=0;dashed=0;html=1;strokeColor=none;fillColor=#505050;labelPosition=center;verticalLabelPosition=bottom;verticalAlign=top;outlineConnect=0;align=center;shape=mxgraph.office.servers.server_generic;" vertex="1" parent="1">
          <mxGeometry x="1769" y="920.5" width="27" height="52" as="geometry" />
        </mxCell>
        <mxCell id="5zzfdvalp0ISnl_wuwMz-276" value="Dedicated VR Client" style="sketch=0;pointerEvents=1;shadow=0;dashed=0;html=1;strokeColor=none;fillColor=#505050;labelPosition=center;verticalLabelPosition=bottom;verticalAlign=top;outlineConnect=0;align=center;shape=mxgraph.office.devices.workstation;" vertex="1" parent="1">
          <mxGeometry x="1780" y="472" width="53" height="56" as="geometry" />
        </mxCell>
        <mxCell id="5zzfdvalp0ISnl_wuwMz-277" value="&lt;div&gt;Dedicated Stream /&lt;/div&gt;&lt;div&gt;&amp;nbsp;Local VOD PC&lt;/div&gt;" style="sketch=0;pointerEvents=1;shadow=0;dashed=0;html=1;strokeColor=none;fillColor=#505050;labelPosition=center;verticalLabelPosition=bottom;verticalAlign=top;outlineConnect=0;align=center;shape=mxgraph.office.devices.workstation;" vertex="1" parent="1">
          <mxGeometry x="1780" y="682" width="53" height="56" as="geometry" />
        </mxCell>
        <mxCell id="5zzfdvalp0ISnl_wuwMz-278" value="" style="edgeStyle=elbowEdgeStyle;elbow=horizontal;strokeColor=#990000;strokeWidth=2" edge="1" parent="1">
          <mxGeometry width="100" height="100" relative="1" as="geometry">
            <mxPoint x="1810" y="556" as="sourcePoint" />
            <mxPoint x="1810" y="666" as="targetPoint" />
            <Array as="points">
              <mxPoint x="1810" y="644" />
            </Array>
          </mxGeometry>
        </mxCell>
        <mxCell id="5zzfdvalp0ISnl_wuwMz-279" value="HDMI Capture Card" style="edgeLabel;html=1;align=center;verticalAlign=middle;resizable=0;points=[];fontSize=12;fontStyle=1" vertex="1" connectable="0" parent="5zzfdvalp0ISnl_wuwMz-278">
          <mxGeometry x="-0.3502" y="-2" relative="1" as="geometry">
            <mxPoint as="offset" />
          </mxGeometry>
        </mxCell>
        <mxCell id="5zzfdvalp0ISnl_wuwMz-282" value="" style="edgeStyle=orthogonalEdgeStyle;strokeColor=#990000;strokeWidth=2" edge="1" parent="1" target="5zzfdvalp0ISnl_wuwMz-271">
          <mxGeometry width="100" height="100" relative="1" as="geometry">
            <mxPoint x="1630" y="790" as="sourcePoint" />
            <mxPoint x="1650" y="893.5" as="targetPoint" />
            <Array as="points">
              <mxPoint x="1630" y="947" />
            </Array>
          </mxGeometry>
        </mxCell>
        <mxCell id="5zzfdvalp0ISnl_wuwMz-306" value="RTMP" style="edgeLabel;html=1;align=center;verticalAlign=middle;resizable=0;points=[];fontSize=12;" vertex="1" connectable="0" parent="5zzfdvalp0ISnl_wuwMz-282">
          <mxGeometry x="0.2043" y="-2" relative="1" as="geometry">
            <mxPoint as="offset" />
          </mxGeometry>
        </mxCell>
        <mxCell id="5zzfdvalp0ISnl_wuwMz-284" value="" style="edgeStyle=orthogonalEdgeStyle;elbow=horizontal;strokeColor=#990000;strokeWidth=2;" edge="1" parent="1" target="5zzfdvalp0ISnl_wuwMz-274">
          <mxGeometry width="100" height="100" relative="1" as="geometry">
            <mxPoint x="1647" y="790" as="sourcePoint" />
            <mxPoint x="1669" y="957" as="targetPoint" />
            <Array as="points">
              <mxPoint x="1647" y="880" />
              <mxPoint x="1783" y="880" />
            </Array>
          </mxGeometry>
        </mxCell>
        <mxCell id="5zzfdvalp0ISnl_wuwMz-308" value="RTMP" style="edgeLabel;html=1;align=center;verticalAlign=middle;resizable=0;points=[];fontSize=12;" vertex="1" connectable="0" parent="5zzfdvalp0ISnl_wuwMz-284">
          <mxGeometry x="0.0882" y="-2" relative="1" as="geometry">
            <mxPoint as="offset" />
          </mxGeometry>
        </mxCell>
        <mxCell id="5zzfdvalp0ISnl_wuwMz-286" value="" style="edgeStyle=orthogonalEdgeStyle;elbow=horizontal;strokeColor=#990000;strokeWidth=2;" edge="1" parent="1" target="5zzfdvalp0ISnl_wuwMz-271">
          <mxGeometry width="100" height="100" relative="1" as="geometry">
            <mxPoint x="1807" y="790" as="sourcePoint" />
            <mxPoint x="1942" y="1011" as="targetPoint" />
            <Array as="points">
              <mxPoint x="1807" y="830" />
              <mxPoint x="1673" y="830" />
            </Array>
          </mxGeometry>
        </mxCell>
        <mxCell id="5zzfdvalp0ISnl_wuwMz-309" value="RTMP" style="edgeLabel;html=1;align=center;verticalAlign=middle;resizable=0;points=[];fontSize=12;" vertex="1" connectable="0" parent="5zzfdvalp0ISnl_wuwMz-286">
          <mxGeometry x="-0.3875" y="-2" relative="1" as="geometry">
            <mxPoint as="offset" />
          </mxGeometry>
        </mxCell>
        <mxCell id="5zzfdvalp0ISnl_wuwMz-288" value="" style="edgeStyle=orthogonalEdgeStyle;elbow=horizontal;strokeColor=#990000;strokeWidth=2;" edge="1" parent="1" target="5zzfdvalp0ISnl_wuwMz-274">
          <mxGeometry width="100" height="100" relative="1" as="geometry">
            <mxPoint x="1820" y="790" as="sourcePoint" />
            <mxPoint x="1696" y="956" as="targetPoint" />
            <Array as="points">
              <mxPoint x="1820" y="947" />
            </Array>
          </mxGeometry>
        </mxCell>
        <mxCell id="5zzfdvalp0ISnl_wuwMz-307" value="RTMP" style="edgeLabel;html=1;align=center;verticalAlign=middle;resizable=0;points=[];fontSize=12;" vertex="1" connectable="0" parent="5zzfdvalp0ISnl_wuwMz-288">
          <mxGeometry x="0.2155" y="-2" relative="1" as="geometry">
            <mxPoint as="offset" />
          </mxGeometry>
        </mxCell>
        <mxCell id="5zzfdvalp0ISnl_wuwMz-290" value="London" style="text;strokeColor=none;fillColor=none;html=1;align=center;verticalAlign=middle;whiteSpace=wrap;rounded=0;fontSize=16;fontStyle=1" vertex="1" parent="1">
          <mxGeometry x="1776.5" y="411" width="60" height="30" as="geometry" />
        </mxCell>
        <mxCell id="5zzfdvalp0ISnl_wuwMz-291" value="Minneapolis" style="text;strokeColor=none;fillColor=none;html=1;align=center;verticalAlign=middle;whiteSpace=wrap;rounded=0;fontSize=16;fontStyle=1" vertex="1" parent="1">
          <mxGeometry x="1616.5" y="411" width="60" height="30" as="geometry" />
        </mxCell>
        <mxCell id="5zzfdvalp0ISnl_wuwMz-293" value="" style="edgeStyle=elbowEdgeStyle;elbow=horizontal;strokeColor=#990000;strokeWidth=2;" edge="1" parent="1">
          <mxGeometry width="100" height="100" relative="1" as="geometry">
            <mxPoint x="1840" y="128" as="sourcePoint" />
            <mxPoint x="1840" y="500" as="targetPoint" />
            <Array as="points">
              <mxPoint x="1890" y="320" />
            </Array>
          </mxGeometry>
        </mxCell>
        <mxCell id="5zzfdvalp0ISnl_wuwMz-376" value="PASSIVE" style="edgeLabel;html=1;align=center;verticalAlign=middle;resizable=0;points=[];fontSize=12;fontStyle=1" vertex="1" connectable="0" parent="5zzfdvalp0ISnl_wuwMz-293">
          <mxGeometry x="-0.0763" y="-2" relative="1" as="geometry">
            <mxPoint as="offset" />
          </mxGeometry>
        </mxCell>
        <mxCell id="5zzfdvalp0ISnl_wuwMz-295" value="&lt;div&gt;Ideal Virtual Production Stream Workflow&lt;/div&gt;" style="text;strokeColor=none;fillColor=none;html=1;align=center;verticalAlign=middle;whiteSpace=wrap;rounded=0;fontSize=36;fontStyle=1" vertex="1" parent="1">
          <mxGeometry x="549" y="1019" width="822" height="30" as="geometry" />
        </mxCell>
        <mxCell id="5zzfdvalp0ISnl_wuwMz-299" value="US-EAST-1" style="text;strokeColor=none;fillColor=none;html=1;align=center;verticalAlign=middle;whiteSpace=wrap;rounded=0;fontSize=16;fontStyle=1" vertex="1" parent="1">
          <mxGeometry x="1197" y="250" width="90" height="30" as="geometry" />
        </mxCell>
        <mxCell id="5zzfdvalp0ISnl_wuwMz-327" value="&lt;div&gt;SRT Ingest&amp;nbsp;&lt;/div&gt;&lt;div&gt;- Instances hosted&lt;/div&gt;&lt;div&gt;&amp;nbsp;in Region/AZ closest to LT&lt;/div&gt;" style="sketch=0;pointerEvents=1;shadow=0;dashed=0;html=1;strokeColor=none;fillColor=#505050;labelPosition=center;verticalLabelPosition=bottom;verticalAlign=top;outlineConnect=0;align=center;shape=mxgraph.office.servers.server_generic;" vertex="1" parent="1">
          <mxGeometry x="745" y="865" width="27" height="52" as="geometry" />
        </mxCell>
        <mxCell id="5zzfdvalp0ISnl_wuwMz-329" value="" style="edgeStyle=elbowEdgeStyle;elbow=horizontal;strokeColor=#990000;strokeWidth=2" edge="1" parent="1">
          <mxGeometry width="100" height="100" relative="1" as="geometry">
            <mxPoint x="1162" y="373" as="sourcePoint" />
            <mxPoint x="1036" y="834" as="targetPoint" />
            <Array as="points">
              <mxPoint x="1162" y="869" />
            </Array>
          </mxGeometry>
        </mxCell>
        <mxCell id="5zzfdvalp0ISnl_wuwMz-330" value="API" style="edgeLabel;html=1;align=center;verticalAlign=middle;resizable=0;points=[];fontSize=12;" vertex="1" connectable="0" parent="5zzfdvalp0ISnl_wuwMz-329">
          <mxGeometry x="-0.3502" y="-2" relative="1" as="geometry">
            <mxPoint as="offset" />
          </mxGeometry>
        </mxCell>
        <mxCell id="5zzfdvalp0ISnl_wuwMz-333" value="" style="edgeStyle=elbowEdgeStyle;elbow=horizontal;strokeColor=#990000;strokeWidth=2" edge="1" parent="1">
          <mxGeometry width="100" height="100" relative="1" as="geometry">
            <mxPoint x="1274" y="692" as="sourcePoint" />
            <mxPoint x="1274" y="641" as="targetPoint" />
            <Array as="points">
              <mxPoint x="1274" y="651" />
            </Array>
          </mxGeometry>
        </mxCell>
        <mxCell id="5zzfdvalp0ISnl_wuwMz-338" value="" style="edgeStyle=elbowEdgeStyle;elbow=horizontal;strokeColor=#990000;strokeWidth=2" edge="1" parent="1">
          <mxGeometry width="100" height="100" relative="1" as="geometry">
            <mxPoint x="993" y="841" as="sourcePoint" />
            <mxPoint x="375" y="964" as="targetPoint" />
            <Array as="points">
              <mxPoint x="491" y="858" />
            </Array>
          </mxGeometry>
        </mxCell>
        <mxCell id="5zzfdvalp0ISnl_wuwMz-363" value="SRT" style="edgeLabel;html=1;align=center;verticalAlign=middle;resizable=0;points=[];fontSize=12;" vertex="1" connectable="0" parent="5zzfdvalp0ISnl_wuwMz-338">
          <mxGeometry x="0.1417" y="-1" relative="1" as="geometry">
            <mxPoint as="offset" />
          </mxGeometry>
        </mxCell>
        <mxCell id="5zzfdvalp0ISnl_wuwMz-340" value="" style="edgeStyle=elbowEdgeStyle;elbow=horizontal;strokeColor=#990000;strokeWidth=2;" edge="1" parent="1">
          <mxGeometry width="100" height="100" relative="1" as="geometry">
            <mxPoint x="374" y="981" as="sourcePoint" />
            <mxPoint x="736" y="904" as="targetPoint" />
            <Array as="points">
              <mxPoint x="512" y="938" />
            </Array>
          </mxGeometry>
        </mxCell>
        <mxCell id="5zzfdvalp0ISnl_wuwMz-364" value="SRT" style="edgeLabel;html=1;align=center;verticalAlign=middle;resizable=0;points=[];fontSize=12;" vertex="1" connectable="0" parent="5zzfdvalp0ISnl_wuwMz-340">
          <mxGeometry x="0.4267" relative="1" as="geometry">
            <mxPoint as="offset" />
          </mxGeometry>
        </mxCell>
        <mxCell id="5zzfdvalp0ISnl_wuwMz-344" value="" style="edgeStyle=elbowEdgeStyle;elbow=horizontal;strokeColor=#990000;strokeWidth=2" edge="1" parent="1">
          <mxGeometry width="100" height="100" relative="1" as="geometry">
            <mxPoint x="854" y="742" as="sourcePoint" />
            <mxPoint x="991" y="824" as="targetPoint" />
            <Array as="points" />
          </mxGeometry>
        </mxCell>
        <mxCell id="5zzfdvalp0ISnl_wuwMz-345" value="SRT" style="edgeLabel;html=1;align=center;verticalAlign=middle;resizable=0;points=[];fontSize=12;" vertex="1" connectable="0" parent="5zzfdvalp0ISnl_wuwMz-344">
          <mxGeometry x="-0.7424" y="1" relative="1" as="geometry">
            <mxPoint as="offset" />
          </mxGeometry>
        </mxCell>
        <mxCell id="5zzfdvalp0ISnl_wuwMz-328" value="&lt;div&gt;LD Stream Switcher&lt;/div&gt;&lt;div&gt;for LT or route to Final&lt;br&gt;&lt;/div&gt;" style="sketch=0;pointerEvents=1;shadow=0;dashed=0;html=1;strokeColor=none;fillColor=#505050;labelPosition=center;verticalLabelPosition=bottom;verticalAlign=top;outlineConnect=0;align=center;shape=mxgraph.office.servers.server_generic;" vertex="1" parent="1">
          <mxGeometry x="1000" y="808" width="27" height="52" as="geometry" />
        </mxCell>
        <mxCell id="5zzfdvalp0ISnl_wuwMz-348" value="LT" style="text;strokeColor=none;fillColor=none;html=1;align=center;verticalAlign=middle;whiteSpace=wrap;rounded=0;fontSize=16;fontStyle=1" vertex="1" parent="1">
          <mxGeometry x="307.5" y="897" width="60" height="30" as="geometry" />
        </mxCell>
        <mxCell id="5zzfdvalp0ISnl_wuwMz-349" value="" style="sketch=0;pointerEvents=1;shadow=0;dashed=0;html=1;strokeColor=none;fillColor=#505050;labelPosition=center;verticalLabelPosition=bottom;verticalAlign=top;outlineConnect=0;align=center;shape=mxgraph.office.users.user;" vertex="1" parent="1">
          <mxGeometry x="45" y="968" width="32" height="35" as="geometry" />
        </mxCell>
        <mxCell id="5zzfdvalp0ISnl_wuwMz-350" value="VR Client" style="sketch=0;pointerEvents=1;shadow=0;dashed=0;html=1;strokeColor=none;fillColor=#505050;labelPosition=center;verticalLabelPosition=bottom;verticalAlign=top;outlineConnect=0;align=center;shape=mxgraph.office.devices.workstation;" vertex="1" parent="1">
          <mxGeometry x="117.5" y="906" width="53" height="56" as="geometry" />
        </mxCell>
        <mxCell id="5zzfdvalp0ISnl_wuwMz-351" value="Laser Show Designer" style="sketch=0;pointerEvents=1;shadow=0;dashed=0;html=1;strokeColor=none;fillColor=#505050;labelPosition=center;verticalLabelPosition=bottom;verticalAlign=top;outlineConnect=0;align=center;shape=mxgraph.office.devices.workstation;" vertex="1" parent="1">
          <mxGeometry x="117.5" y="993" width="53" height="56" as="geometry" />
        </mxCell>
        <mxCell id="5zzfdvalp0ISnl_wuwMz-352" value="VRSL / Stream / &lt;br&gt;&lt;div&gt;Local VOD PC&lt;/div&gt;&lt;div&gt;(OBS Filter Mask)&lt;br&gt;&lt;/div&gt;" style="sketch=0;pointerEvents=1;shadow=0;dashed=0;html=1;strokeColor=none;fillColor=#505050;labelPosition=center;verticalLabelPosition=bottom;verticalAlign=top;outlineConnect=0;align=center;shape=mxgraph.office.devices.workstation;" vertex="1" parent="1">
          <mxGeometry x="314.5" y="937" width="53" height="56" as="geometry" />
        </mxCell>
        <mxCell id="5zzfdvalp0ISnl_wuwMz-353" value="MIDI Controller" style="sketch=0;pointerEvents=1;shadow=0;dashed=0;html=1;strokeColor=none;fillColor=#505050;labelPosition=center;verticalLabelPosition=bottom;verticalAlign=top;outlineConnect=0;align=center;shape=mxgraph.office.concepts.calculator;" vertex="1" parent="1">
          <mxGeometry x="223" y="911" width="32" height="46" as="geometry" />
        </mxCell>
        <mxCell id="5zzfdvalp0ISnl_wuwMz-354" value="" style="edgeStyle=elbowEdgeStyle;elbow=horizontal;strokeColor=#990000;strokeWidth=2" edge="1" parent="1">
          <mxGeometry width="100" height="100" relative="1" as="geometry">
            <mxPoint x="65" y="961" as="sourcePoint" />
            <mxPoint x="107" y="934" as="targetPoint" />
            <Array as="points">
              <mxPoint x="65" y="928" />
            </Array>
          </mxGeometry>
        </mxCell>
        <mxCell id="5zzfdvalp0ISnl_wuwMz-356" value="" style="edgeStyle=elbowEdgeStyle;elbow=horizontal;strokeColor=#990000;strokeWidth=2" edge="1" parent="1">
          <mxGeometry width="100" height="100" relative="1" as="geometry">
            <mxPoint x="65" y="1009" as="sourcePoint" />
            <mxPoint x="108" y="1029" as="targetPoint" />
            <Array as="points">
              <mxPoint x="65" y="1076" />
            </Array>
          </mxGeometry>
        </mxCell>
        <mxCell id="5zzfdvalp0ISnl_wuwMz-358" value="" style="edgeStyle=elbowEdgeStyle;elbow=horizontal;strokeColor=#990000;strokeWidth=2" edge="1" parent="1">
          <mxGeometry width="100" height="100" relative="1" as="geometry">
            <mxPoint x="180" y="1032" as="sourcePoint" />
            <mxPoint x="306" y="972" as="targetPoint" />
            <Array as="points">
              <mxPoint x="290" y="1034" />
            </Array>
          </mxGeometry>
        </mxCell>
        <mxCell id="5zzfdvalp0ISnl_wuwMz-359" value="&lt;div&gt;&lt;b&gt;&amp;nbsp;ArtNet&amp;nbsp; &lt;/b&gt;&lt;/div&gt;" style="edgeLabel;html=1;align=center;verticalAlign=middle;resizable=0;points=[];fontSize=12;" vertex="1" connectable="0" parent="5zzfdvalp0ISnl_wuwMz-358">
          <mxGeometry x="-0.2179" y="-1" relative="1" as="geometry">
            <mxPoint as="offset" />
          </mxGeometry>
        </mxCell>
        <mxCell id="5zzfdvalp0ISnl_wuwMz-360" value="" style="edgeStyle=elbowEdgeStyle;elbow=horizontal;strokeColor=#990000;strokeWidth=2" edge="1" parent="1">
          <mxGeometry width="100" height="100" relative="1" as="geometry">
            <mxPoint x="239" y="985" as="sourcePoint" />
            <mxPoint x="178" y="1007" as="targetPoint" />
            <Array as="points">
              <mxPoint x="239" y="1017" />
            </Array>
          </mxGeometry>
        </mxCell>
        <mxCell id="5zzfdvalp0ISnl_wuwMz-362" value="USB" style="edgeLabel;html=1;align=center;verticalAlign=middle;resizable=0;points=[];fontSize=12;" vertex="1" connectable="0" parent="5zzfdvalp0ISnl_wuwMz-360">
          <mxGeometry x="0.2048" relative="1" as="geometry">
            <mxPoint as="offset" />
          </mxGeometry>
        </mxCell>
        <mxCell id="5zzfdvalp0ISnl_wuwMz-374" value="Hot Standby Redundancy Model" style="text;strokeColor=none;fillColor=none;html=1;align=center;verticalAlign=middle;whiteSpace=wrap;rounded=0;fontSize=16;fontStyle=0" vertex="1" parent="1">
          <mxGeometry x="1565" y="349" width="150" height="30" as="geometry" />
        </mxCell>
      </root>
    </mxGraphModel>
  </diagram>
</mxfile>
